<?xml version="1.0" encoding="UTF-8" standalone="no"?>
<svg id="emoji" xmlns:rdf="http://www.w3.org/1999/02/22-rdf-syntax-ns#" xmlns="http://www.w3.org/2000/svg" viewBox="0 0 72 72" height="72" width="72" version="1.1" xmlns:cc="http://creativecommons.org/ns#" xmlns:dc="http://purl.org/dc/elements/1.1/">
 <g>
  <path fill="#b3b3b3" d="m68.003 4v64h-64v-64h64m4-4h-72v72h72v-72z"/>
  <path d="m12.926 10.958h46.154a1.9231 1.9231 0 0 1 1.9231 1.9231v46.154" stroke="#00a5ff" stroke-miterlimit="10" stroke-width=".1" fill="none"/>
  <rect rx="2.2537" height="64" width="40" stroke="#00a5ff" stroke-miterlimit="10" y="4" x="16.003" stroke-width=".1" fill="none"/>
  <rect rx="2.2537" transform="rotate(90)" height="64" width="40" stroke="#00a5ff" stroke-miterlimit="10" y="-68.003" x="16" stroke-width=".1" fill="none"/>
  <circle stroke-width=".1" stroke="#00a5ff" cy="36" cx="36.003" stroke-miterlimit="10" r="29" fill="none"/>
 </g>
 <g fill="#f4aa41">
  <path d="m50.802 29.277c-0.0178-0.0229-0.0324-0.0417-0.0436-0.0563 0.0125 0.0162 0.0251 0.0325 0.0436 0.0563z"/>
  <path d="m51.757 30.508c-0.1079-0.1391-0.1959-0.2526-0.2845-0.3668 0.1603 0.2067 0.2845 0.3668 0.2845 0.3668z"/>
  <path d="m51.472 30.141c-0.2275-0.2932-0.5278-0.6804-0.6703-0.8642 0.0998 0.1286 0.3097 0.3994 0.6703 0.8642z"/>
  <path d="m50.802 29.277c-0.0178-0.0229-0.0324-0.0417-0.0436-0.0563 0.0125 0.0162 0.0251 0.0325 0.0436 0.0563z"/>
  <path d="m51.757 30.508c-0.1079-0.1391-0.1959-0.2526-0.2845-0.3668 0.1603 0.2067 0.2845 0.3668 0.2845 0.3668z"/>
  <path d="m51.472 30.141c-0.2275-0.2932-0.5278-0.6804-0.6703-0.8642 0.0998 0.1286 0.3097 0.3994 0.6703 0.8642z"/>
 </g>
 <g fill="#e27022">
  <path d="m47.257 44.375 2.6576 2.6965 5.5913 1.2452-1.2906 4.0583 0.75 3.2177 2.2082-0.7136 2.6251-4.9786 1.2083-5.1543-3.3857-5.1312c-1.7899-1.4032-2.2727-3.5375-3.4893-5.7816l-6.8749 10.542z"/>
  <path d="m30.951 43.791-1.8191 2.8415-1.5832 7.5341-1.6015 1.7542-2.9402-1.0875-0.3333-5.25s0.5-4.5111 1-6.5472c0.5-2.0362 5.3334-2.3662 5.3334-2.3662l1.9439 3.1211z"/>
 </g>
 <g>
  <path fill="#f4aa41" d="m67.59 16.75-2.6667-0.5572-4.2897 1.5572-0.7292 4.4056-0.3746 3.1407-3.2498 3.8217-2.645 1.5486-1.7609 0.0057c-0.0405-0.0547-0.0751-0.1098-0.1174-0.1643h-3.2887l-5.3233-2.0347-5.9714-2.0856-9.8918 0.5412-6.4415 1.2377-6.3238-2.7543-4.2595-2.829-3.6231 0.739 0.2181 0.4258 1.5319 2.9908-3.3181 5.1001 0.9412 4.2369 5.0904 0.1184h2.0762l3.2881-0.1184-0.4111 2.5907 1.1092 2.7379-1.1092 1.9827-3.7103 2.9487-0.4855 4.0934 2.798 3.2894s3.9375-0.3125 2.3435-4.5771l2.799-2.7331 4.7468-1.2341 1.9731-1.2169 4.4358 0.7886h5.3894 3.0195l2.1301 3.4041-1.4236 4.6831 0.0954 2.7593 2.5555-0.2704 2.9484-3.9299 1.9368-2.5701v-3.489l3.6388-3.5719 2.3492-4.9391s0.0198-0.1385 0.0331-0.3762l0.0119 0.0164s6.1058-3.0036 8.33-7.525c2.1875-4.4467-0.2519-8.125 4.4375-8.3125 1.3543-0.0541 2.7498-2.2499 1.1873-3.8749z"/>
 </g>
 <g fill="#d0cfce">
  <path style="color-rendering:auto;color:#000000;isolation:auto;mix-blend-mode:normal;shape-rendering:auto;solid-color:#000000;image-rendering:auto" d="m56.752 49.443c-0.61507-0.03211-1.1761 0.05778-1.6816 0.24024l-0.85547 2.6914 0.75 3.2168 2.209-0.71289 2.3965-4.5469c-0.17964-0.10247-0.35329-0.2071-0.55664-0.29883-0.81957-0.36967-1.5738-0.55393-2.2617-0.58984z"/>
  <path style="color-rendering:auto;color:#000000;isolation:auto;mix-blend-mode:normal;shape-rendering:auto;solid-color:#000000;image-rendering:auto" d="m25.318 49.914c-0.63897-0.03577-1.2853 0.04435-1.9219 0.27148-0.24009 0.08567-0.4575 0.19888-0.66406 0.32422l0.27539 4.3242 2.9394 1.0879 1.6016-1.7559 0.68946-3.2832c-0.89948-0.54737-1.8977-0.91153-2.9199-0.96875z"/>
 </g>
 <g fill="#d0cfce">
  <path style="color-rendering:auto;color:#000000;isolation:auto;mix-blend-mode:normal;shape-rendering:auto;solid-color:#000000;image-rendering:auto" d="m13.816 46.584c-0.52515 0.0019-1.0455 0.08721-1.5371 0.26367l-0.42383 3.582 2.7969 3.2891s3.9378-0.31352 2.3438-4.5781l0.81836-0.79883c-0.0908-0.0929-0.16378-0.18272-0.26172-0.27734-0.96269-0.93006-2.3625-1.4855-3.7363-1.4805z"/>
  <path style="color-rendering:auto;color:#000000;isolation:auto;mix-blend-mode:normal;shape-rendering:auto;solid-color:#000000;image-rendering:auto" d="m42.6 49.734c-0.61297 0.0059-1.1781 0.12172-1.6914 0.32812l-0.8418 2.7715 0.0957 2.7578 2.5547-0.26953 2.9492-3.9297 0.42383-0.5625c-0.55078-0.37901-1.1722-0.6799-1.8711-0.87305-0.57139-0.1579-1.1118-0.22751-1.6191-0.22266z"/>
 </g>
 <g>
  <path d="m18.967 27.35c-1.0018 0.28556-2.2248 1.3477-2.6094 2.0566-1.2668 2.3352-2.9256 2.9649-6.1211 3.4238-1.2755 0.18318-3.1792 1.126-4.4238 2.3672l0.19531 0.87891 5.0898 0.11719 1.9808 0.15254 3.4206-0.09812c0.76579-1.088 1.8536-3.0343 2.2451-3.6091 1.4375-2.0747 1.9547-3.6994 1.5645-4.7051z" fill="#d0cfce"/>
 </g>
 <g>
  <path d="m35.315 40.889c-0.92926-0.0099-1.8075 0.01566-2.6074 0.10547-2.6117 0.17083-5.4115 0.96874-7.6836 2.416 0.17476 0.38219 0.41895 0.73103 0.71094 1.0293l0.78125-0.48242 3.8867 0.69141 0.54883 0.09766h5.3887 2.7656c0.27902-0.74026-0.21875-1.5651-0.61523-2.1895-0.17517-0.51352-0.22267-1.0362-0.20313-1.5605-1.0241-0.05217-2.0256-0.09737-2.9726-0.10742z" fill-rule="evenodd" fill="#d0cfce"/>
 </g>
 <g fill-rule="evenodd" fill="#e27022">
  <path d="m64.924 16.193-4.2891 1.5566-0.73047 4.4062-0.375 3.1406-3.25 3.8203-2.6445 1.5488-1.7598 0.0059c-0.0405-0.0547-0.0749-0.10956-0.11718-0.16406h-3.2891l-5.3242-2.0352-5.9707-2.084-9.8926 0.54102-6.4414 1.2363-6.3242-2.7539-0.05273-0.03516c-0.61644-0.01395-1.2653 0.97271-1.1465 2.7207 0.10215 2.4513 2.757 6.3761 5.7051 4.9766 3.7723-1.7908 6.102-0.09551 8.0625 1.8203 1.7224 1.6832 5.1086 2.4182 5.9889 0.11715 1.2448-3.2535-0.77028-4.2638 2.9881-3.8469 3.4302 0.38049 2.3669 0.07773 7.2525 3.4945 2.4081 1.6841 2.2756 4.1678 5.1735 4.8657 2.3052 0.55516 5.8318-1.7264 7.1321-2.5874-0.2009-0.40716-0.35612-0.80981-0.55312-1.2451 1.931-1.1629 5.3362-3.5782 6.8988-6.7549 2.1875-4.4467-0.2519-8.125 4.4375-8.3125 1.3543-0.0541 2.75-2.25 1.1875-3.875z"/>
  <path d="m16.754 41.25c0.54596 0.79189 1.3523 1.3505 1.9552 2.0938 0.49211 0.49561 1.0232 0.97014 1.3811 1.578 1.4737 0.94424 3.4778 0.86663 4.9405-0.05974 1.9185-0.60653 2.6721-3.3577 1.326-4.8549-0.80199-0.75917-3.5614-1.3299-5.0747-1.5435-2.0948-0.23303-4.3355-0.05252-4.5282 2.7863z"/>
 </g>
 <g>
  <path d="m18.791 30.874c1.1561 0.90029 1.4853 3.3674 2.1755 5.0163 1.1692 2.7932 4.0755 4.1589 6.4961 6.2871 1.6917-0.67398 3.5085-1.0701 5.2441-1.1836 0.79998-0.08981 1.6782-0.11537 2.6074-0.10547 0.94706 0.01005 1.9485 0.05525 2.9726 0.10742-0.007 0.1885 0.008 0.37675 0.0215 0.56445 1.9387-0.44115 3.8819-0.91603 5.9141-0.63281 2.3736 0.3308 5.3813 0.67614 4.7617-2.8848-0.4974-2.8587 1.41-5.0934 4.7383-4.7578 1.4703 0.14826 2.9447 0.16687 4.418 0.18555 1.4671-1.2138 2.9441-2.7442 3.8242-4.5332 2.1875-4.4467-0.2519-8.125 4.4375-8.3125 1.3543-0.0541 2.75-2.25 1.1875-3.875l-2.666-0.55664h-0.00001l-4.2891 1.5566-0.73047 4.4062-0.375 3.1406-3.25 3.8203-2.6445 1.5488-1.7598 0.0059c-0.0405-0.0547-0.0749-0.10956-0.11718-0.16406h-3.2891l-5.3242-2.0352-5.9707-2.084-9.8926 0.54102-6.4414 1.2363-0.34565-0.15051c-2.4844-0.72656-2.8279 2.0463-1.7029 2.8588z" fill-rule="evenodd" fill="#8d8d8d"/>
 </g>
 <g fill-rule="evenodd" fill="#8d8d8d">
  <path d="m34.494 26.535-7.2129 0.39453-6.4414 1.2363-2.8398-1.2363c-0.0309 0.04934-0.0583 0.10152-0.0898 0.15039-0.1199 0.18596-0.38816 0.25779-0.47656 0.46094-0.53764 1.2356 0.36434 2.6655 1.5625 3.2891 1.3623 0.70899 1.6699 2.4763 1.6641 4.0156-0.005 1.3028 1.6667 1.696 2.9356 1.9648 2.0144 0.42684 4.0811-0.65425 4.4785-2.6211 0.26648-1.3189 1.9238-2.1911 3.2578-1.623 0.81856 0.34859 2.0748 0.60405 2.6426-0.28516 0.95943-1.5027-0.0346-3.3025 0.35157-4.9512 0.0599-0.25588 0.11284-0.52735 0.16796-0.79492z"/>
  <path d="m64.924 16.193-4.2891 1.5566-0.73047 4.4062-0.375 3.1406-2.4668 2.8984-0.7832 0.92188-2.6445 1.5488-1.7598 0.0059c-0.0405-0.0547-0.0749-0.10956-0.11718-0.16406h-3.2891l-5.3242-2.0352-3.0469-1.0645c-1.5904 1.212-3.1159 2.4871-3.0137 4.4844 0.0982 1.9186 2.732 0.95876 3.7226 1.9766 1.0139 1.0418 0.71711 2.9423 2.1445 3.7168 2.6403 1.4325 4.5883-1.2783 6.994-2.7697 2.4172-1.4986 4.2324-0.87311 6.8052-0.2206 1.3271-0.86675 2.2364-1.8083 3.1305-2.7558 0.0362-0.03863 0.0715-0.07815 0.10743-0.11719 0.31851-0.347 0.62245-0.71111 0.90624-1.0898 0.40361-0.5386 0.77689-1.0988 1.0703-1.6953 2.1875-4.4467-0.2519-8.125 4.4375-8.3125 1.3543-0.0541 2.75-2.25 1.1875-3.875z"/>
 </g>
 <g fill="#e27022">
  <path style="color-rendering:auto;color:#000000;isolation:auto;mix-blend-mode:normal;shape-rendering:auto;solid-color:#000000;image-rendering:auto" d="m43.943 28.777c0.64022 1.0421 1.678 2.1402 2.4035 4.8653 0.27533 1.1512-0.10724 3.3861 0.5203 3.5936 0.47918 0.15847 0.85544-1.3369 0.87891-1.8535 0.0443-0.97481 0.78492-2.9276 1.7562-1.7272 0.37153 0.45917 1.3137 2.5854 1.6286 1.5885 0.47879-1.5162-0.46551-3.1234-0.76562-4.6699-0.004-0.02132-0.0114-0.04497-0.0156-0.06641h-1.8809z"/>
  <path style="color-rendering:auto;color:#000000;isolation:auto;mix-blend-mode:normal;shape-rendering:auto;solid-color:#000000;image-rendering:auto" d="m39.268 27.543c0.0168 0.20298 0.0346 0.40777 0.0605 0.5918 0.0895 1.633 0.18827 3.2496 0.76279 4.7754 0.42994 1.1419 0.75887 2.3157 0.97422 3.5227 0.1092 0.53272 0.67155 2.5292 1.388 1.657 0.28941-1.3639 0.16338-2.7948-0.0312-4.1641-0.25233-1.7752-0.27999-3.5586-0.38477-5.3398 0.00066-0.01956 0.0111-0.04889 0.0137-0.07031l-2.7832-0.97266z"/>
  <path style="color-rendering:auto;color:#000000;isolation:auto;mix-blend-mode:normal;shape-rendering:auto;solid-color:#000000;image-rendering:auto" d="m35.424 26.889-2.5898 0.14258c0.85018 3.6739 1.4838 11.48 2.7598 11.52 1.0634 0.03301 1.0784-7.5881 1.0156-11.023-0.005-0.37738-0.83278-0.51545-1.1855-0.63867z"/>
  <path style="color-rendering:auto;color:#000000;isolation:auto;mix-blend-mode:normal;shape-rendering:auto;solid-color:#000000;image-rendering:auto" d="m29.26 26.758-0.85352 0.04688-3.0469 0.58398c1.9853 4.2501 0.48924 9.2496 2.6074 9.0703 0.94648-0.08012 1.4631-6.6561 1.293-9.7012z"/>
  <path style="color-rendering:auto;color:#000000;isolation:auto;mix-blend-mode:normal;shape-rendering:auto;solid-color:#000000;image-rendering:auto" d="m40.504 42.391h-1.6797c-0.25047 0-0.0811 0.43206-0.0137 0.64258 0.18124 0.56626-0.26771 0.98015-0.49023 1.4453-0.0411 0.08584-0.0712 0.1768-0.10352 0.26758h1.1426l2.1309 3.4043-0.88477 2.9082c0.42037-0.28423 0.7736-0.66794 1.1992-0.94922 0.645-0.42625 1.337-0.95717 2.1211-0.94727 0.53168 0.0067 1.1417-0.80503 0.52343-0.95312-0.4837-0.11587-0.99028-0.10859-1.4824-0.05859-0.45478 0.0462-1.3733-0.15203-1.0234-0.70117 0.81888-0.66101 2.6599-1.7514 2.2598-2.2031-0.40013-0.45177-3.1311 0.52501-3.8652-0.26562 0.45396-0.58871 0.78137-1.008 1.3477-1.4824 0.64067-0.53677 1.4096-1.3282 0.71875-1.4004-0.64627-0.11565-1.2571 0.28-1.9004 0.29297z"/>
  <path style="color-rendering:auto;color:#000000;isolation:auto;mix-blend-mode:normal;shape-rendering:auto;solid-color:#000000;image-rendering:auto" d="m15.316 25.762c-0.05822 0.30267-0.12391 0.60324-0.21875 0.89453-0.47434 1.4549-1.3024 3.0229-0.5918 4.2324 0.91848 1.5635 2.2743-1.8226 3.6108-1.4548 2.391 0.65812 2.4577 3.8887 3.69 3.7888 1.4124-0.11457 0.87038-3.7893 1.5508-5.5391l-2.5176 0.48242z"/>
  <path style="color-rendering:auto;color:#000000;isolation:auto;mix-blend-mode:normal;shape-rendering:auto;solid-color:#000000;image-rendering:auto" d="m16.272 37.268-0.2207 1.3984 1.1094 2.7383-1.1094 1.9824-0.93945 0.74805c0.34562 0.03533 0.71923 0.07646 1.0176-0.07227 0.56032-0.33332 1.1713-0.62624 1.832-0.66797 1.5667-0.4723 4.5644-0.323 4.5059-1.1719-0.038-0.5505-1.4431-1.1666-2.5905-1.3762-0.98897-0.18068-2.3527-0.11559-2.6541-0.59279-0.12491-0.43173-0.03619-0.603 0.32859-0.77317 1.2668-0.47268 3.9219-1.236 3.7871-1.8535-0.17753-0.81338-3.8122-0.33074-5.0664-0.35937z"/>
  <path style="color-rendering:auto;color:#000000;isolation:auto;mix-blend-mode:normal;shape-rendering:auto;solid-color:#000000;image-rendering:auto" d="m60.389 19.236-0.46485 2.8008c0.0518-0.0084 0.11541-0.02199 0.16211-0.0293 0.94065-0.20454 1.9123-0.22513 2.8652-0.26172 0.17859 0.05026 0.45846 0.11423 0.71093 0.13672 0.10778-0.19192 0.2347-0.37021 0.39844-0.52148-0.005-0.0084-0.005-0.01284-0.01-0.02148-0.878-0.70647-1.8823-1.2444-2.8789-1.7715-0.25428-0.13045-0.51697-0.23655-0.7832-0.33203zm-0.74219 5.082-0.11719 0.97852-1.1016 1.2949c1.073 0.27626 2.1197 0.70364 2.9453 1.459 0.16036 0.14388 0.46074 0.37071 0.75195 0.52148 0.13323-0.30231 0.24729-0.60106 0.34375-0.89453-0.24761-0.36211-0.48114-0.73266-0.66601-1.1406-0.42473-0.81788-1.1053-1.4465-1.8418-1.9805-0.10079-0.08187-0.20921-0.15946-0.31445-0.23828zm-2.9648 4.3262-0.40234 0.47266-1.7988 1.0527c0.1197 0.13101 0.24513 0.25659 0.36133 0.39062 0.89144 0.9032 1.6693 1.9186 2.3379 2.9922 0.25618 0.1972 0.51723 0.196 0.74219 0.09961 0.13125-0.10582 0.26307-0.21507 0.39453-0.32617 0.22715-0.33755 0.33757-0.3796-0.0957-1.1387-0.43327-0.75907-1.1563-2.2514-1.5137-3.4688-0.009-0.0243-0.0168-0.04976-0.0254-0.07422z"/>
 </g>
 <g>
  <path d="m10.258 22.584-3.623 0.73828 0.2168 0.42578 1.0898 2.127c0.61681 0.23982 1.1583 0.57527 1.2266 0.99805 0.1421 0.87979-1.1333 3.6849 0.40192 4.0424 1.5478 0.36044 2.287-1.1452 2.9297-1.7773 0.79723-0.78413 0.86527-1.0497 1.9789-1.2807 1.1803-0.24481 3.6495 2.792 4.6836 3.2637 0.77713 0.35443 1.9816 0.98309 2.7285-0.50977 0.36938-0.73831 0.70108-1.7975 1.0215-2.8438l-2.0723 0.39844-6.3242-2.7539z" fill-rule="evenodd" fill="#8d8d8d"/>
 </g>
 <g>
  <path d="m20.494 28.016-5.9786-2.6034-4.2578-2.8281-3.623 0.73828 0.2168 0.42578 1.5332 2.9902l-3.2589 5.011c1.5354 0.857 3.7052-0.69546 5.375-1.5938 1.7825-0.95894 3.3092 2.159 5.873 0.79492 1.0944-0.58227 1.8519-0.51219 2.4183-0.07685 1.2043 0.7292 5.6925 1.7958 6.0359-3.195 0.0622-0.90348-4.333 0.33621-4.333 0.33621z" fill-rule="evenodd" fill="#8d8d8d"/>
 </g>
 <g>
  <path d="m13.022 24.42c-0.02205 0.3821 0.02806 0.7523 0.16992 1.0879 2.7075 6.4048 11.682 5.9336 17.84 4.7812 7.5355-1.4102 14.128 4.5296 21.445 3.0801 3.8124-0.75524 4.6908-2.5957 3.9766-4.457l-0.17383 0.20508-2.6445 1.5488-1.7598 0.0059c-0.0405-0.0547-0.0749-0.10956-0.11718-0.16406h-3.2891l-5.3242-2.0352-5.9707-2.084-9.8926 0.54102-6.4414 1.2363-6.3242-2.7539-1.4941-0.99219z" fill-rule="evenodd" fill="#d0cfce"/>
 </g>
 <g>
  <path d="m37.174 26.389-5.1523 0.28125c-0.10479 0.10966-0.21373 0.21563-0.3125 0.33008 0.81323 6.7857 12.263 6.6218 14.145 2.5078l-2.709-1.0352-5.9707-2.084z" fill="#d0cfce"/>
 </g>
 <g>
  <path d="m64.924 16.193-4.2891 1.5566-0.73047 4.4062-0.375 3.1406-3.25 3.8203-2.0898 1.2246c-0.0241 0.12698-0.0444 0.25385-0.0742 0.38086 0.11157 2.3712 1.1813 3.5107 2.6781 3.8534 1.8381-1.3129 4.1043-3.2788 5.2575-5.6229 2.1875-4.4467-0.33784-8.1406 4.3516-8.3281 1.3543-0.0541 2.75-2.25 1.1875-3.875l-2.666-0.55664z" fill-rule="evenodd" fill="#d0cfce"/>
 </g>
 <g>
  <path style="color-rendering:auto;color:#000000;isolation:auto;mix-blend-mode:normal;shape-rendering:auto;solid-color:#000000;image-rendering:auto" d="m64.924 16.193-4.2891 1.5566-0.19336 1.1641c0.55374 1.3345 1.7925 2.3612 3.3418 2.7695 0.43909-0.62126 1.3086-0.9237 2.7285-0.98047 1.3543-0.0541 2.7031-2.375 1.0781-3.9531z" fill="#d0cfce"/>
 </g>
 <g stroke-linejoin="round" stroke="#000" stroke-linecap="round" stroke-miterlimit="10" stroke-width="2" fill="none">
  <path d="m12.467 35.739c-2.3333 1-4.9167 0.8333-4.9167 0.8333-1.6771 0.1458-3.1146-4.0104-2.4847-4.7333l3.3181-5.1001-1.75-3.4167s5.0084-1.4152 7.8826 2.0901c0.3444 0.42 0.7943 0.7429 1.2794 0.9871 0.0298 0.015 0.0602 0.0302 0.0912 0.0456 2.5932 1.289 5.5462 1.5711 8.3848 0.9981 7.2224-1.4579 14.071-1.3704 21.695 2.2125 7.625 3.5833 14.833-2.25 13.938-7.5-0.793-4.6474 3.5625-7.5833 6.75-5"/>
  <path d="m16.051 48.822c0.6006-2.2056 8.4914-3.6479 8.4914-3.6479s3.2281-1.2012 1.4264-4.5043"/>
  <path d="m18.301 33.239c-1.5428 1.8343-3.8926 4.8028-0.44 9.1578 0 0-6.7565 2.8527-6.0058 8.0327 0 0 0.3624 2.4762 2.4023 2.4023"/>
  <path d="m23.498 50.026c-1.1557 7.2545 2.3861 6.0552 3.0172 5.6608 1.1477-0.7173 1.8479-9.8542 3.9521-11.312 1.5923-1.1036 8.1667-0.3021 8.1667-0.3021"/>
  <path d="m38.447 41.326c0.0911 1.742 0.7529 3.4023 1.734 4.8447 0.6616 0.9727 1.8032 2.3197 1.4527 2.9848-4.4792 8.5 0.6224 7.0222 1.0833 6.1667 3.1875-5.9167 6.125-4.1042 4.6466-10.523 0 0 5.27-1.8101 5.52-7.9767"/>
  <path d="m48.155 45.593s2.3673 3.2035 7.7575 2.6929c0 0-3.3258 6.7623 0 7.6196 1.9167 0.4941 4.7217-11.159 4.7217-11.159s-2.6667-2.4499-3.5833-4.3665"/>
 </g>
 <g display="none" fill="#9b9b9a">
  <path d="m55.027 35.676c-0.81749 0.49232-1.3926 0.78711-1.3926 0.78711l-0.0117-0.01758c-0.0133 0.2377-0.0332 0.37695-0.0332 0.37695l-2.3477 4.9395-3.3359 3.2734 2.0078 2.0371 5.5918 1.2441-1.291 4.0586 0.75 3.2168 2.209-0.71289 2.625-4.9785 1.209-5.1543-3.3867-5.1309c-1.2879-1.0096-1.899-2.4043-2.5938-3.9395z" display="inline"/>
  <path d="m26.516 43.957-1.9727 1.2168-1.3262 0.34375c-0.30549 1.9764-0.54297 4.0664-0.54297 4.0664l0.33399 5.25 2.9394 1.0879 1.6016-1.7559 1.582-7.5332 1.2715-1.9844-3.8867-0.69141z" display="inline"/>
 </g>
 <g display="none">
  <path d="m64.924 16.193-4.2891 1.5566-0.73047 4.4062-0.375 3.1406-3.25 3.8203-2.6445 1.5488-1.7598 0.0059c-0.0405-0.0547-0.0749-0.10956-0.11718-0.16406h-3.2891l-5.3242-2.0352-5.9707-2.084-9.8926 0.54102-6.4414 1.2363-6.3242-2.7539-4.2578-2.8281-3.623 0.73828 0.2168 0.42578 1.5332 2.9902-3.3184 5.1016 0.94141 4.2363 5.0898 0.11719h2.0762l3.2871-0.11719-0.41016 2.5898 1.1094 2.7383-1.1094 1.9824-3.7109 2.9492-0.48438 4.0938 2.7969 3.2891s3.9378-0.31352 2.3438-4.5781l2.7988-2.7324 3.4219-0.89062c-0.30549 1.9764-0.54297 4.0664-0.54297 4.0664l0.33399 5.25 2.9394 1.0879 1.6016-1.7559 1.582-7.5332 1.2715-1.9844 0.54883 0.09766h5.3887 3.0195l2.1309 3.4043-1.4238 4.6836 0.0957 2.7578 2.5547-0.26953 2.9492-3.9297 1.9356-2.5703v-3.4883l0.30468-0.29883 2.0078 2.0371 5.5918 1.2441-1.291 4.0586 0.75 3.2168 2.209-0.71289 2.625-4.9785 1.209-5.1543-3.3867-5.1309c-1.2879-1.0096-1.899-2.4043-2.5938-3.9395 1.931-1.1629 5.3748-3.5617 6.9375-6.7383 2.1875-4.4467-0.2519-8.125 4.4375-8.3125 1.3543-0.0541 2.75-2.25 1.1875-3.875l-2.666-0.55664z" display="inline" fill="#d0cfce"/>
 </g>
</svg>
